# xmcd
#
# Track frame offsets:
#	150
#	18006
#	35096
#	55748
#	71832
#	89492
#	103876
#	118530
#	135707
#	153296
#	171066
#	185012
#	199307
#	214474
#
# Disc length: 3075 seconds
#
# Revision: 1
# Processed by: cddbd v1.5.2PL0 Copyright (c) Steve Scherf et al.
# Submitted via: audiograbber 1.83.01
#
DISCID=ce0c010e
DTITLE=Various Artist - CDX Volume 545 (May 7, 2012)
DYEAR=2012
DGENRE=Country
TTITLE0=George Strait - Drinkin' Man 
TTITLE1=Keith Urban - For You
TTITLE2=Randy Travis - More Life (featuring Don Henley)
TTITLE3=Little Big Town - Pontoon
TTITLE4=Rachel Farley - Ain't Easy 
TTITLE5=LoCash Cowboys - C.O.U.N.T.R.Y.
TTITLE6=Due West - Things You Can't Do In A Car
TTITLE7=Todd Stanford - A Way With Words
TTITLE8=Rich O'Toole - Drunk Girl
TTITLE9=Logan Mize - Good Life
TTITLE10=Miss Jeanie - Small Talk
TTITLE11=Daniel Warren - Sweet Little Lullaby
TTITLE12=Claudia Lee - Three Leaf Clover
TTITLE13=T.J. Maddux - Hotter Than Fireworks
EXTD=
EXTT0=
EXTT1=
EXTT2=
EXTT3=
EXTT4=
EXTT5=
EXTT6=
EXTT7=
EXTT8=
EXTT9=
EXTT10=
EXTT11=
EXTT12=
EXTT13=
PLAYORDER=
